<svg width="65" height="65" viewBox="0 0 65 65" fill="none" xmlns="http://www.w3.org/2000/svg">
<g clip-path="url(#clip0_1944_452)">
<g clip-path="url(#clip1_1944_452)">
<path d="M63.0632 51.4997C62.9784 50.6446 62.2151 50.0214 61.36 50.1069L57.7317 50.4718C60.4332 46.0095 61.9909 40.7714 61.9909 35.1794C61.9909 28.3098 59.6427 21.973 55.7079 16.9551C51.7731 11.9349 46.2502 8.2188 39.8902 6.5637C39.0577 6.34745 38.208 6.84621 37.9924 7.67794C37.7761 8.50967 38.2749 9.35933 39.1066 9.57574C44.7906 11.0541 49.7352 14.3796 53.2585 18.8746C56.7801 23.3711 58.8786 29.0224 58.8794 35.1794C58.8786 40.2035 57.4811 44.8891 55.0528 48.8869L53.8375 45.2377C53.5659 44.4222 52.6851 43.981 51.8688 44.2526C51.0541 44.5242 50.6137 45.405 50.8845 46.2203L53.4841 54.0261L61.6719 53.2029C62.5256 53.1173 63.1497 52.3549 63.0632 51.4997Z" fill="#0C1D3E"/>
<path d="M52.2644 55.0128C51.691 54.3724 50.7067 54.318 50.067 54.8914C45.3806 59.086 39.2073 61.6335 32.4232 61.6343C22.6349 61.6358 14.1056 56.3106 9.52734 48.4099L13.7469 48.6853C14.6051 48.7413 15.345 48.0915 15.4011 47.2341C15.4572 46.3759 14.8083 45.636 13.9507 45.5799L5.74041 45.0438L3.41467 52.9374C3.17106 53.7621 3.64339 54.6274 4.46812 54.8701C5.29286 55.1128 6.15818 54.6414 6.40087 53.8167H6.40011L7.30114 50.758C12.5151 59.152 21.8139 64.744 32.4231 64.7455C39.9939 64.7463 46.9149 61.8931 52.1428 57.2091C52.7826 56.6366 52.8378 55.6531 52.2644 55.0128Z" fill="#306FD5"/>
<path d="M36.4326 7.03845L30.6273 1.20434C30.0213 0.595097 29.0362 0.592817 28.427 1.19887C27.8177 1.80493 27.8162 2.78999 28.4223 3.39924H28.4215L30.6779 5.66738C15.1614 6.57236 2.85672 19.4364 2.85596 35.1794C2.85596 37.6241 3.15321 40.002 3.71489 42.2772C3.92035 43.1113 4.76378 43.6216 5.59779 43.4156C6.43195 43.2093 6.94227 42.3667 6.7362 41.5327C6.23439 39.4979 5.96905 37.3714 5.96905 35.1796C5.96981 27.8695 8.92805 21.2658 13.718 16.4729C18.3414 11.851 24.6555 8.94339 31.6598 8.7434L29.3924 12.3094C28.9303 13.0346 29.145 13.9962 29.8695 14.4576C30.5954 14.919 31.5571 14.7043 32.0185 13.9791L36.4326 7.03845Z" fill="#9BD0FF"/>
<path d="M37.01 22.3697C36.9087 21.955 36.484 21.5373 36.0661 21.4423L33.3505 21.0315C32.9233 21.0011 32.3943 21.2766 32.1741 21.6438C32.1741 21.6438 31.1626 23.3307 29.759 23.6808C28.3538 24.0294 26.6716 23.0117 26.6716 23.0117C26.3051 22.7899 25.7083 22.7937 25.3466 23.0209L23.1368 24.6542C22.8131 24.9335 22.6326 25.5015 22.7353 25.917C22.7353 25.917 23.2146 27.8241 22.4677 29.0636C21.7215 30.3015 19.8113 30.7723 19.8113 30.7723C19.395 30.875 18.9788 31.3005 18.883 31.7177L18.473 34.4325C18.4443 34.8597 18.7181 35.3896 19.0853 35.6089C19.0853 35.6089 20.7722 36.6204 21.1185 38.0249C21.4679 39.427 20.4501 41.1108 20.4501 41.1108C20.2284 41.4772 20.2322 42.0732 20.4594 42.4366L22.0934 44.6448C22.3727 44.9693 22.9408 45.1498 23.3563 45.0463C23.3563 45.0463 25.2648 44.5693 26.5035 45.3147C27.7422 46.0609 28.2123 47.9734 28.2123 47.9734C28.315 48.3889 28.7405 48.8059 29.1569 48.9017L31.8725 49.3109C32.2997 49.3405 32.8287 49.0658 33.0489 48.6986C33.0489 48.6986 34.0619 47.014 35.464 46.6654C36.8685 46.3145 38.5521 47.3345 38.5521 47.3345C38.9187 47.557 39.5146 47.5532 39.8772 47.326L42.0854 45.6936C42.4107 45.415 42.5904 44.847 42.4869 44.4315C42.4869 44.4315 42.0099 42.5205 42.7546 41.281C43.5039 40.0415 45.414 39.5722 45.414 39.5722C45.8303 39.4695 46.2474 39.0455 46.3423 38.6276L46.7523 35.9128C46.7827 35.4856 46.5079 34.9566 46.1415 34.7364C46.1415 34.7364 44.4514 33.7234 44.1037 32.3197C43.7551 30.9161 44.7753 29.2322 44.7753 29.2322C44.9955 28.8666 44.9908 28.2698 44.7644 27.9065L43.1304 25.6982C42.8518 25.3737 42.2838 25.194 41.8675 25.2974C41.8675 25.2974 39.9597 25.7768 38.721 25.0291C37.4792 24.2808 37.01 22.3697 37.01 22.3697Z" fill="#306FD5"/>
<path d="M35.4625 30.4354C38.0761 32.0125 38.9195 35.4081 37.3471 38.0217C35.7699 40.6368 32.3758 41.4802 29.7607 39.9046C27.1472 38.3297 26.3037 34.9334 27.8762 32.3198C29.4525 29.7056 32.8504 28.8637 35.4625 30.4354Z" fill="#0C1D3E"/>
<path d="M36.9228 31.7122C38.3304 33.4684 38.5747 35.9832 37.3468 38.0217C36.3073 39.7444 34.4804 40.6983 32.6067 40.6983C31.6356 40.6983 30.653 40.4424 29.7605 39.9048C29.5263 39.7631 29.3061 39.6067 29.0991 39.4379L36.2567 46.594C37.4301 46.6546 38.5498 47.3324 38.5498 47.3324C38.7303 47.4421 38.966 47.4965 39.2034 47.4965C39.447 47.4965 39.6912 47.4389 39.875 47.3238L42.0832 45.6913C42.3478 45.4649 42.5167 45.0471 42.5135 44.6758C42.5135 44.5903 42.5042 44.507 42.4847 44.4292C42.4847 44.4292 42.3338 43.8247 42.3346 43.0745C42.3346 42.491 42.4264 41.8203 42.7524 41.278C43.2628 40.4313 44.3178 39.9443 44.934 39.7203L36.9228 31.7122Z" fill="#306FD5"/>
</g>
</g>
<defs>
<clipPath id="clip0_1944_452">
<rect width="64" height="64" fill="white" transform="translate(0.963623 0.74585)"/>
</clipPath>
<clipPath id="clip1_1944_452">
<rect width="64" height="64" fill="white" transform="translate(0.963623 0.74585)"/>
</clipPath>
</defs>
</svg>
