<svg width="65" height="65" viewBox="0 0 65 65" fill="none" xmlns="http://www.w3.org/2000/svg">
<g clip-path="url(#clip0_1944_415)">
<path d="M59.693 14.518C59.693 11.8446 57.5056 9.65724 54.8322 9.65724H18.3749C15.7015 9.65724 13.5142 11.8446 13.5142 14.518V59.8851C13.5142 62.5585 15.7015 64.7458 18.3749 64.7458H45.9169L59.689 51.7838L59.693 14.518Z" fill="#F2F8FD"/>
<path d="M13.5142 14.518C13.5142 11.8446 15.7015 9.65724 18.3749 9.65724H50.7816V5.60661C50.7816 2.93319 48.5942 0.74585 45.9208 0.74585H9.46354C6.79012 0.74585 4.60278 2.93319 4.60278 5.60661V50.9737C4.60278 53.6471 6.79012 55.8345 9.46354 55.8345H13.5142V14.518Z" fill="#306FD5"/>
<path d="M50.7785 51.7838H59.6899L45.9177 64.7458V56.6446C45.9177 53.9712 48.1051 51.7838 50.7785 51.7838Z" fill="#9BD0FF"/>
<path d="M25.6661 31.1256H47.5395C48.2112 31.1256 48.7547 30.5811 48.7547 29.9104C48.7547 29.2389 48.2111 28.6952 47.5395 28.6952H25.6661C24.9946 28.6952 24.4509 29.2389 24.4509 29.9104C24.4509 30.5811 24.9944 31.1256 25.6661 31.1256Z" fill="#0C1D3E"/>
<path d="M25.6661 23.0243H47.5395C48.2112 23.0243 48.7547 22.4799 48.7547 21.8091C48.7547 21.1376 48.2111 20.5939 47.5395 20.5939H25.6661C24.9946 20.5939 24.4509 21.1376 24.4509 21.8091C24.4509 22.4799 24.9944 23.0243 25.6661 23.0243Z" fill="#0C1D3E"/>
<path d="M25.6661 39.2269H47.5395C48.2112 39.2269 48.7547 38.6824 48.7547 38.0117C48.7547 37.3402 48.2111 36.7965 47.5395 36.7965H25.6661C24.9946 36.7965 24.4509 37.3402 24.4509 38.0117C24.4509 38.6824 24.9944 39.2269 25.6661 39.2269Z" fill="#0C1D3E"/>
<path d="M25.6661 47.3281H37.818C38.4895 47.3281 39.0332 46.7837 39.0332 46.1129C39.0332 45.4413 38.4895 44.8977 37.818 44.8977H25.6661C24.9946 44.8977 24.4509 45.4413 24.4509 46.1129C24.4509 46.7837 24.9944 47.3281 25.6661 47.3281Z" fill="#0C1D3E"/>
</g>
<defs>
<clipPath id="clip0_1944_415">
<rect width="64" height="64" fill="white" transform="translate(0.147949 0.74585)"/>
</clipPath>
</defs>
</svg>
