<svg width="221" height="63" viewBox="0 0 221 63" fill="none" xmlns="http://www.w3.org/2000/svg">
<path d="M87.98 17.6797V20.8841H81.6586V39.5778H77.9537V20.8841H71.5996V17.6797H87.98Z" fill="#303030"/>
<path d="M101.485 32.6282C101.485 36.8494 99.4104 39.8633 94.7151 39.8633C90.0198 39.8633 87.9148 37.0074 87.9148 32.6282V30.629C87.9148 25.9642 90.405 23.4241 94.7151 23.4241C99.0251 23.4241 101.485 25.9621 101.485 30.629V32.6282ZM98.1 32.533V30.6917C98.1 27.931 96.9833 26.3753 94.7151 26.3753C92.4469 26.3753 91.2975 27.9613 91.2975 30.6917V32.533C91.2975 35.0082 92.1269 36.9446 94.7151 36.9446C97.1422 36.9446 98.1 35.0082 98.1 32.533Z" fill="#303030"/>
<path d="M103.655 23.7099H105.699V20.2178H109.084V23.7099H112.469V26.6286H109.084V33.8962C109.084 35.7374 109.371 36.5293 111.158 36.5293H112.466V39.5757H110.901C107.07 39.5757 105.697 38.2754 105.697 34.5301V26.6286H103.653V23.7099H103.655Z" fill="#303030"/>
<path d="M120.897 30.2157H124.345V28.883C124.345 26.8838 123.579 26.3429 121.185 26.3429C119.461 26.3429 118.599 26.5333 117.832 27.7709L115.375 26.0573C116.524 24.1857 118.248 23.4241 121.409 23.4241C125.497 23.4241 127.7 24.6942 127.7 28.9154V39.5799H124.348V38.1195C123.581 39.3571 122.591 39.8655 120.645 39.8655C117.131 39.8655 114.961 38.0892 114.961 34.9151C114.961 31.5182 117.484 30.2179 120.899 30.2179L120.897 30.2157ZM124.345 32.8186H121.152C119.141 32.8186 118.311 33.5174 118.311 34.913C118.311 36.3085 119.397 36.9749 121.026 36.9749C123.1 36.9749 124.345 36.341 124.345 33.5802V32.8186Z" fill="#303030"/>
<path d="M131.816 17.6797H135.232V33.8009C135.232 35.5145 135.552 36.5941 137.659 36.5941V39.5778C133.508 39.5778 131.816 38.245 131.816 34.595V17.6797Z" fill="#303030"/>
<path d="M153.369 22.9786C152.282 21.4878 151.103 20.5986 148.61 20.5986C146.344 20.5986 145.001 21.6133 145.001 23.4546C145.001 25.5489 146.662 26.3755 149.727 27.0418C154.165 27.9938 156.464 29.6447 156.464 33.5803C156.464 36.8496 154.261 39.8635 148.961 39.8635C145.193 39.8635 142.543 38.7211 140.724 36.2762L143.63 34.277C144.938 35.8326 146.248 36.657 148.771 36.657C151.804 36.657 152.763 35.3242 152.763 33.7383C152.763 31.9922 151.773 30.9147 147.942 30.0882C143.695 29.199 141.3 27.1695 141.3 23.4546C141.3 20.1529 143.471 17.3921 148.645 17.3921C152.158 17.3921 154.616 18.5669 156.181 20.9794L153.371 22.9786H153.369Z" fill="#303030"/>
<path d="M172.111 37.1653C171.057 39.0368 169.172 39.8633 166.427 39.8633C161.956 39.8633 159.403 37.0074 159.403 32.6909V30.5338C159.403 25.9642 161.989 23.4241 166.556 23.4241C168.983 23.4241 170.994 24.3134 172.111 25.9945L169.492 27.8033C168.885 26.9465 167.864 26.3753 166.49 26.3753C164 26.3753 162.788 27.9613 162.788 30.6917V32.533C162.788 35.0082 163.682 36.9446 166.49 36.9446C167.831 36.9446 168.917 36.4686 169.525 35.389L172.111 37.1653Z" fill="#303030"/>
<path d="M187.534 32.6282C187.534 36.8494 185.457 39.8633 180.764 39.8633C176.071 39.8633 173.963 37.0074 173.963 32.6282V30.629C173.963 25.9642 176.454 23.4241 180.764 23.4241C185.074 23.4241 187.534 25.9621 187.534 30.629V32.6282ZM184.149 32.533V30.6917C184.149 27.931 183.032 26.3753 180.764 26.3753C178.495 26.3753 177.346 27.9613 177.346 30.6917V32.533C177.346 35.0082 178.175 36.9446 180.764 36.9446C183.191 36.9446 184.149 35.0082 184.149 32.533Z" fill="#303030"/>
<path d="M204.551 32.6909C204.551 36.817 202.507 39.8633 198.26 39.8633C196.408 39.8633 195.195 39.4198 194.397 38.563V45.6078H190.981V23.7097H194.397V24.9798C195.195 23.9953 196.473 23.4241 198.293 23.4241C202.124 23.4241 204.551 25.9945 204.551 30.5338V32.6909ZM201.166 32.533V30.6917C201.166 27.931 200.05 26.3753 197.781 26.3753C195.513 26.3753 194.429 27.8985 194.397 30.5013V32.533C194.397 35.0082 195.195 36.9446 197.781 36.9446C200.209 36.9446 201.166 35.0082 201.166 32.533Z" fill="#303030"/>
<path d="M220.067 37.1653C218.951 39.1017 217.161 39.8633 214.351 39.8633C209.784 39.8633 207.359 36.9122 207.359 32.6909V30.5338C207.359 25.869 209.658 23.4241 213.842 23.4241C218.025 23.4241 220.291 26.027 220.291 30.7242V32.4702H210.744V32.533C210.744 35.0082 211.702 36.9446 214.225 36.9446C216.108 36.9446 216.874 36.3734 217.514 35.389L220.067 37.1653ZM210.777 29.8652H216.876C216.748 27.548 215.79 26.3753 213.844 26.3753C211.898 26.3753 210.938 27.7081 210.779 29.8652H210.777Z" fill="#303030"/>
<path d="M15.1895 29.427H10.6609V49.7619H15.1895V29.427Z" fill="#303030"/>
<path d="M47.9856 29.427H43.457V49.7619H47.9856V29.427Z" fill="#303030"/>
<path d="M44.663 15.4871H39.9656V27.1182H44.663V15.4871Z" fill="#303030"/>
<path d="M29.0428 31.5898H25.0015V36.2456H29.0428V31.5898Z" fill="#303030"/>
<path d="M33.7847 31.5898H29.7434V36.2456H33.7847V31.5898Z" fill="#303030"/>
<path d="M29.0428 36.877H25.0015V41.5328H29.0428V36.877Z" fill="#303030"/>
<path d="M33.7847 36.877H29.7434V41.5328H33.7847V36.877Z" fill="#303030"/>
<path d="M10.3045 34.4726L29.2801 20.2593L48.9545 34.4726H58.7511L29.2181 13.1379L0.734375 34.4726H10.3045Z" fill="#303030"/>
<path d="M43.1437 2.28415C34.3729 -1.61126 23.4009 2.74169 15.47 12.2546C22.6828 4.93828 31.9152 1.94524 39.1195 5.48479C49.0251 10.3503 51.3418 25.7202 44.2935 39.8106C37.2453 53.901 23.5035 61.3804 13.5979 56.5127C11.0974 55.2842 9.07998 53.3862 7.57544 51.0075C9.47535 55.4197 12.5656 58.8682 16.7224 60.7153C28.1646 65.799 43.3553 56.8389 50.6515 40.7023C57.9477 24.5678 54.5838 7.36577 43.1416 2.28415H43.1437Z" fill="#306FD5"/>
</svg>
