<svg width="65" height="65" viewBox="0 0 65 65" fill="none" xmlns="http://www.w3.org/2000/svg">
<g clip-path="url(#clip0_1944_599)">
<g clip-path="url(#clip1_1944_599)">
<path d="M26.4135 53.354C26.5922 52.9892 26.7714 52.6468 26.9578 52.3594L45.8788 22.4619H45.878L50.0239 15.9169C50.6869 14.8711 51.881 14.3642 53.0364 14.507V10.8395H5.67725V52.1118C5.67725 54.6731 7.77423 56.7701 10.3355 56.7701H25.2171C25.4819 55.6389 25.9181 54.3827 26.4135 53.354Z" fill="#F2F8FD"/>
<path d="M25.8632 18.726C25.8632 17.0172 24.4665 15.6205 22.7577 15.6205H14.9939C13.2852 15.6205 11.8884 17.0172 11.8884 18.726V26.4898C11.8884 28.1986 13.2852 29.5953 14.9939 29.5953H22.7577C24.4665 29.5953 25.8632 28.1986 25.8632 26.4898V18.726Z" fill="#306FD5"/>
<path d="M25.8632 37.3591C25.8632 35.6511 24.4658 34.2536 22.7577 34.2536H14.9939C13.2859 34.2536 11.8884 35.6511 11.8884 37.3591V45.1229C11.8884 46.8309 13.2859 48.2284 14.9939 48.2284H22.7577C24.4658 48.2284 25.8632 46.8309 25.8632 45.1229V37.3591Z" fill="#9BD0FF"/>
<path d="M53.0363 29.6047L36.0103 56.5093L36.438 56.7686H48.3779C50.9392 56.7686 53.0361 54.6716 53.0361 52.1103V29.6047" fill="#F2F8FD"/>
<path d="M23.8398 19.9558C23.9842 20.3315 23.9322 20.771 23.6612 21.1064L19.5643 26.1444C19.3672 26.3858 19.0821 26.5388 18.7725 26.5683C18.5667 26.5885 18.3633 26.5482 18.1777 26.4635L21.3081 29.5947H22.7569C24.4656 29.5947 25.8624 28.198 25.8624 26.4892V21.9777L23.8398 19.9558Z" fill="#306FD5"/>
<path d="M15.0242 23.8944L17.9147 26.3042C18.1538 26.5037 18.4636 26.5993 18.7727 26.5689C19.0817 26.5394 19.3674 26.3865 19.5645 26.145L23.6614 21.107C24.066 20.6078 23.9914 19.8749 23.4922 19.4689C22.9923 19.0635 22.2602 19.1389 21.8541 19.6373L18.5017 23.7606L16.5165 22.1054C16.022 21.6938 15.2867 21.7607 14.8759 22.2544C14.4636 22.7485 14.5296 23.4828 15.0242 23.8944Z" fill="#0C1D3E"/>
<path d="M53.0364 0.74585H5.67725V10.8388H53.0364V0.74585Z" fill="#306FD5"/>
<path d="M46.1716 18.6444C46.2415 18.5319 46.3657 18.4675 46.5023 18.4667C46.5753 18.4675 46.6405 18.4846 46.7066 18.5264L47.8945 19.2787L49.1414 17.3106L47.9512 16.5576C47.5033 16.2742 46.9971 16.1368 46.5025 16.1376C45.6066 16.1368 44.7198 16.5832 44.202 17.4015L44.2027 17.3999L37.1175 28.5962C36.7736 29.1396 36.9359 29.8585 37.4786 30.2032C38.0213 30.5471 38.7417 30.3849 39.0856 29.8422L46.1701 18.6459L46.1716 18.6444Z" fill="#0C1D3E"/>
<path d="M45.879 22.462L54.2158 27.7406L35.2961 57.639C35.1098 57.9262 34.8846 58.2367 34.6292 58.5559L26.4136 53.3542C26.5922 52.9893 26.7714 52.6477 26.9578 52.3596L45.879 22.462Z" fill="#0C1D3E"/>
<path d="M26.4135 53.3532L34.6277 58.555C33.6269 59.8049 32.144 61.1636 30.9795 61.8701L26.8492 64.3545C25.3895 65.2396 24.3344 64.5719 24.5046 62.8716L24.9859 58.0735C25.1255 56.715 25.7155 54.8052 26.4135 53.3532Z" fill="#306FD5"/>
<path d="M57.3994 16.91C58.8435 17.8183 59.2782 19.7515 58.3614 21.1878L54.2155 27.7405L45.8779 22.4611L50.0238 15.9162C50.94 14.4721 52.8653 14.0374 54.3094 14.9534L57.3994 16.91Z" fill="#306FD5"/>
</g>
</g>
<defs>
<clipPath id="clip0_1944_599">
<rect width="64" height="64" fill="white" transform="translate(0.259766 0.74585)"/>
</clipPath>
<clipPath id="clip1_1944_599">
<rect width="64" height="64" fill="white" transform="translate(0.259766 0.74585)"/>
</clipPath>
</defs>
</svg>
