<svg width="65" height="65" viewBox="0 0 65 65" fill="none" xmlns="http://www.w3.org/2000/svg">
<g clip-path="url(#clip0_1944_617)">
<path d="M8.38122 40.6517C12.5396 40.6517 15.9106 37.2807 15.9106 33.1223C15.9106 28.9639 12.5396 25.5929 8.38122 25.5929C4.22284 25.5929 0.851807 28.9639 0.851807 33.1223C0.851807 37.2807 4.22284 40.6517 8.38122 40.6517Z" fill="#9BD0FF"/>
<path d="M44.5223 18.8164C48.6807 18.8164 52.0517 15.4454 52.0517 11.287C52.0517 7.12865 48.6807 3.75761 44.5223 3.75761C40.364 3.75761 36.9929 7.12865 36.9929 11.287C36.9929 15.4454 40.364 18.8164 44.5223 18.8164Z" fill="#9BD0FF"/>
<path d="M45.2753 60.9811C49.4336 60.9811 52.8047 57.6101 52.8047 53.4517C52.8047 49.2933 49.4336 45.9223 45.2753 45.9223C41.1169 45.9223 37.7458 49.2933 37.7458 53.4517C37.7458 57.6101 41.1169 60.9811 45.2753 60.9811Z" fill="#9BD0FF"/>
<path d="M32.4752 42.1576C37.8811 42.1576 42.2635 37.7753 42.2635 32.3694C42.2635 26.9635 37.8811 22.5811 32.4752 22.5811C27.0694 22.5811 22.687 26.9635 22.687 32.3694C22.687 37.7753 27.0694 42.1576 32.4752 42.1576Z" fill="#306FD5"/>
<path d="M24.8111 48.0909L28.8025 41.4386C28.0961 41.1525 27.4344 40.7851 26.8214 40.3507L22.7947 47.0608C23.5235 47.3017 24.2004 47.6519 24.8111 48.0909Z" fill="#0C1D3E"/>
<path d="M24.0583 17.4008C23.447 17.8391 22.7708 18.1892 22.042 18.4308L26.0063 25.0364C26.5717 24.5372 27.1899 24.0967 27.8608 23.7369L24.0583 17.4008Z" fill="#0C1D3E"/>
<path d="M49.8871 33.4988C49.8314 33.1291 49.793 32.7541 49.793 32.3694C49.793 31.9847 49.8314 31.6089 49.8871 31.24H42.1929C42.2365 31.6111 42.2636 31.9869 42.2636 32.3694C42.2636 32.7519 42.2365 33.1276 42.1929 33.4988H49.8871Z" fill="#0C1D3E"/>
<path d="M19.6754 18.8164C23.8338 18.8164 27.2048 15.4454 27.2048 11.287C27.2048 7.12865 23.8338 3.75761 19.6754 3.75761C15.517 3.75761 12.146 7.12865 12.146 11.287C12.146 15.4454 15.517 18.8164 19.6754 18.8164Z" fill="#306FD5"/>
<path d="M57.3224 39.8988C61.4808 39.8988 64.8518 36.5278 64.8518 32.3694C64.8518 28.211 61.4808 24.84 57.3224 24.84C53.164 24.84 49.793 28.211 49.793 32.3694C49.793 36.5278 53.164 39.8988 57.3224 39.8988Z" fill="#306FD5"/>
<path d="M20.4283 61.7341C24.5867 61.7341 27.9577 58.363 27.9577 54.2047C27.9577 50.0463 24.5867 46.6753 20.4283 46.6753C16.27 46.6753 12.8989 50.0463 12.8989 54.2047C12.8989 58.363 16.27 61.7341 20.4283 61.7341Z" fill="#306FD5"/>
</g>
<defs>
<clipPath id="clip0_1944_617">
<rect width="64" height="64" fill="white" transform="translate(0.851807 0.74585)"/>
</clipPath>
</defs>
</svg>
