<svg width="65" height="65" viewBox="0 0 65 65" fill="none" xmlns="http://www.w3.org/2000/svg">
<g clip-path="url(#clip0_1944_435)">
<g clip-path="url(#clip1_1944_435)">
<path d="M32.5555 11.4125C18.4816 11.4125 7.03174 22.8624 7.03174 36.9363C7.03174 51.0103 18.4816 62.4601 32.5555 62.4601C46.6295 62.4601 58.0794 51.0103 58.0794 36.9363C58.0794 22.8624 46.6295 11.4125 32.5555 11.4125Z" fill="#F2F8FD"/>
<path d="M18.4801 25.2396L21.1741 27.9329C21.6206 28.3793 22.3436 28.3793 22.7902 27.9329C23.2366 27.4865 23.2366 26.7627 22.7902 26.3161L20.0962 23.6228C19.6497 23.1771 18.9259 23.1771 18.4801 23.6228C18.0337 24.0701 18.0337 24.7939 18.4801 25.2396Z" fill="#9BD0FF"/>
<path d="M13.9515 38.4616L17.761 38.4601C18.3925 38.4601 18.9038 37.9481 18.9038 37.3173C18.9038 36.6857 18.3918 36.1744 17.7602 36.1744L13.9507 36.1759C13.3199 36.1759 12.8086 36.688 12.8086 37.3188C12.8086 37.9497 13.3205 38.4616 13.9515 38.4616Z" fill="#9BD0FF"/>
<path d="M20.0969 51.0125L22.7902 48.3177C23.2366 47.8713 23.2366 47.1475 22.7902 46.7009C22.3438 46.2545 21.62 46.2552 21.1741 46.7009L18.4808 49.3957C18.0344 49.8421 18.0344 50.5659 18.4808 51.0125C18.9274 51.4589 19.6512 51.4589 20.0969 51.0125Z" fill="#9BD0FF"/>
<path d="M33.3175 55.542V51.731C33.3175 51.0994 32.8054 50.5881 32.1746 50.5881C31.5438 50.5881 31.0317 51.0994 31.0317 51.731V55.542C31.0317 56.1728 31.5438 56.6848 32.1746 56.6848C32.8054 56.6848 33.3175 56.1729 33.3175 55.542Z" fill="#9BD0FF"/>
<path d="M45.8698 49.3964L43.175 46.7017C42.7286 46.2552 42.0055 46.2552 41.5589 46.7017C41.1125 47.1473 41.1125 47.8711 41.5589 48.3177L44.2537 51.0125C44.7002 51.4589 45.4232 51.4589 45.8698 51.0125C46.3164 50.5661 46.3162 49.8423 45.8698 49.3964Z" fill="#9BD0FF"/>
<path d="M32.5558 11.4125C32.4278 11.4125 32.302 11.4201 32.1748 11.4225V17.1268C32.8056 17.1268 33.3177 17.6381 33.3177 18.2697V22.0807C33.3177 22.7115 32.8056 23.2235 32.1748 23.2235V32.7732C32.3013 32.7618 32.4263 32.7458 32.5558 32.7458C34.8696 32.7458 36.7462 34.6225 36.7462 36.9363C36.7462 37.065 36.7386 37.1915 36.7272 37.3173H44.7462C44.7477 36.6872 45.2583 36.1759 45.8883 36.1759L49.6979 36.1744C50.3296 36.1744 50.8415 36.6857 50.8415 37.3173H58.0696C58.0718 37.19 58.0796 37.0643 58.0796 36.9363C58.0796 22.8624 46.6297 11.4125 32.5558 11.4125ZM45.8693 25.2389L43.1753 27.9329C42.7288 28.3793 42.0058 28.3793 41.5592 27.9329C41.1128 27.4865 41.1128 26.7627 41.5592 26.3168L44.2532 23.6228C44.6997 23.1764 45.4227 23.1764 45.8693 23.6228C46.3157 24.0692 46.3157 24.793 45.8693 25.2389Z" fill="#306FD5"/>
<path d="M55.5964 21.36L57.2948 19.6609C58.4796 18.4753 58.4796 16.5356 57.294 15.35L54.1351 12.1911C52.9495 11.0055 51.0105 11.0063 49.8265 12.1918L48.1275 13.8917C44.0787 11.1511 39.2689 9.45061 34.0794 9.17011V6.84109H38.2699C39.9461 6.84109 41.3175 5.46966 41.3175 3.79347C41.3175 2.11728 39.9461 0.74585 38.2699 0.74585H26.0794C24.4032 0.74585 23.0318 2.11728 23.0318 3.79347C23.0318 5.46966 24.4032 6.84109 26.0794 6.84109H30.2699V9.22814C15.9803 10.3915 4.74609 22.3473 4.74609 36.9363C4.74609 52.2956 17.1956 64.7458 32.5556 64.7458C47.9148 64.7458 60.3651 52.2956 60.3651 36.9363C60.3651 31.1649 58.6059 25.8042 55.5964 21.36ZM32.5556 62.4601C18.4817 62.4601 7.03181 51.0103 7.03181 36.9363C7.03181 22.8624 18.4817 11.4125 32.5556 11.4125C46.6296 11.4125 58.0794 22.8624 58.0794 36.9363C58.0794 51.0103 46.6296 62.4601 32.5556 62.4601Z" fill="#9BD0FF"/>
<path d="M32.5557 41.1268C34.87 41.1268 36.7462 39.2507 36.7462 36.9363C36.7462 34.622 34.87 32.7458 32.5557 32.7458C30.2414 32.7458 28.3652 34.622 28.3652 36.9363C28.3652 39.2507 30.2414 41.1268 32.5557 41.1268Z" fill="#0C1D3E"/>
<path d="M45.889 38.4616L49.6985 38.4601C50.3302 38.4601 50.8413 37.9481 50.8413 37.3173C50.8413 36.6857 50.3293 36.1744 49.6977 36.1744L45.8882 36.1759C45.2574 36.1759 44.7461 36.688 44.7461 37.3188C44.7461 37.9497 45.2582 38.4616 45.889 38.4616Z" fill="#0C1D3E"/>
<path d="M33.3177 22.0807V18.2697C33.3177 17.6381 32.8056 17.1268 32.1748 17.1268C31.544 17.1268 31.032 17.6381 31.032 18.2697V22.0807C31.032 22.7115 31.544 23.2235 32.1748 23.2235C32.8056 23.2235 33.3177 22.7116 33.3177 22.0807Z" fill="#0C1D3E"/>
<path d="M44.2532 23.6228L41.5592 26.3168C41.1128 26.7625 41.1128 27.4863 41.5592 27.9329C42.0056 28.3793 42.7287 28.3793 43.1751 27.9329L45.8692 25.2389C46.3156 24.7924 46.3156 24.0686 45.8692 23.6228C45.4229 23.1764 44.6991 23.1764 44.2532 23.6228Z" fill="#0C1D3E"/>
</g>
</g>
<defs>
<clipPath id="clip0_1944_435">
<rect width="64" height="64" fill="white" transform="translate(0.555664 0.74585)"/>
</clipPath>
<clipPath id="clip1_1944_435">
<rect width="64" height="64" fill="white" transform="translate(0.555664 0.74585)"/>
</clipPath>
</defs>
</svg>
